<?xml version="1.0" standalone="no"?>
<!DOCTYPE svg PUBLIC "-//W3C//DTD SVG 20010904//EN"
 "http://www.w3.org/TR/2001/REC-SVG-20010904/DTD/svg10.dtd">
<svg version="1.0" xmlns="http://www.w3.org/2000/svg"
 width="128.000000pt" height="128.000000pt" viewBox="0 0 128.000000 128.000000"
 preserveAspectRatio="xMidYMid meet">
<metadata>
Created by potrace 1.14, written by Peter Selinger 2001-2017
</metadata>
<g transform="translate(0.000000,128.000000) scale(0.100000,-0.100000)"
fill="#000000" stroke="none">
<path d="M419 1271 c-45 -15 -87 -52 -108 -97 -24 -50 -28 -53 -83 -62 -54 -9
-88 -55 -88 -116 0 -38 -3 -43 -32 -54 -64 -23 -102 -116 -72 -174 13 -26 13
-30 -8 -59 -34 -46 -32 -134 5 -182 15 -20 40 -44 56 -53 l28 -17 -15 -48
c-15 -45 -14 -50 3 -69 10 -11 18 -33 17 -50 0 -23 8 -37 36 -60 20 -17 49
-34 65 -37 15 -3 27 -11 28 -17 6 -85 82 -161 175 -172 70 -8 129 10 177 55
l41 38 23 -28 c35 -41 80 -61 147 -65 118 -6 203 64 215 178 1 3 15 9 32 13
17 4 33 15 36 24 2 10 18 25 34 35 52 31 71 99 44 162 -15 35 -14 39 2 47 10
6 34 27 55 48 55 57 63 145 17 203 -17 21 -17 27 -5 57 26 65 -3 138 -66 167
-34 15 -38 21 -38 57 0 72 -39 115 -125 140 -22 7 -40 16 -40 21 -1 21 -40 72
-73 94 -29 20 -48 25 -101 25 -68 0 -105 -16 -143 -60 -16 -18 -19 -18 -30 -5
-43 53 -144 82 -209 61z"/>
</g>
</svg>
